<mxfile host="app.diagrams.net" modified="2023-11-08T15:04:32.746Z" agent="Mozilla/5.0 (Windows NT 10.0; Win64; x64) AppleWebKit/537.36 (KHTML, like Gecko) Chrome/119.0.0.0 Safari/537.36" etag="y3T0wk0XAXrqpsOHeBpn" version="22.0.8" type="device">
  <diagram name="Pagina-1" id="TNd9zaAJYBpBWhZHWldj">
    <mxGraphModel dx="2261" dy="750" grid="1" gridSize="10" guides="1" tooltips="1" connect="1" arrows="1" fold="1" page="1" pageScale="1" pageWidth="827" pageHeight="1169" math="0" shadow="0">
      <root>
        <mxCell id="0" />
        <mxCell id="1" parent="0" />
        <mxCell id="syfK9ie_J2PRxrda43Ec-3" value="INIZIO" style="rounded=1;whiteSpace=wrap;html=1;arcSize=37;" vertex="1" parent="1">
          <mxGeometry x="354" y="50" width="120" height="60" as="geometry" />
        </mxCell>
        <mxCell id="syfK9ie_J2PRxrda43Ec-16" style="edgeStyle=orthogonalEdgeStyle;rounded=0;orthogonalLoop=1;jettySize=auto;html=1;exitX=0.5;exitY=1;exitDx=0;exitDy=0;entryX=0.5;entryY=0;entryDx=0;entryDy=0;" edge="1" parent="1" source="syfK9ie_J2PRxrda43Ec-6">
          <mxGeometry relative="1" as="geometry">
            <mxPoint x="858" y="500" as="targetPoint" />
          </mxGeometry>
        </mxCell>
        <mxCell id="syfK9ie_J2PRxrda43Ec-6" value="Apro Netflix" style="shape=parallelogram;perimeter=parallelogramPerimeter;whiteSpace=wrap;html=1;fixedSize=1;" vertex="1" parent="1">
          <mxGeometry x="590" y="350" width="146" height="60" as="geometry" />
        </mxCell>
        <mxCell id="syfK9ie_J2PRxrda43Ec-10" value="SI" style="text;html=1;align=center;verticalAlign=middle;resizable=0;points=[];autosize=1;strokeColor=none;fillColor=none;" vertex="1" parent="1">
          <mxGeometry x="497" y="140" width="30" height="30" as="geometry" />
        </mxCell>
        <mxCell id="syfK9ie_J2PRxrda43Ec-11" value="NO" style="text;html=1;align=center;verticalAlign=middle;resizable=0;points=[];autosize=1;strokeColor=none;fillColor=none;" vertex="1" parent="1">
          <mxGeometry x="280" y="140" width="40" height="30" as="geometry" />
        </mxCell>
        <mxCell id="syfK9ie_J2PRxrda43Ec-18" value="" style="edgeStyle=orthogonalEdgeStyle;rounded=0;orthogonalLoop=1;jettySize=auto;html=1;exitX=0.5;exitY=1;exitDx=0;exitDy=0;entryX=0.459;entryY=-0.033;entryDx=0;entryDy=0;entryPerimeter=0;" edge="1" parent="1" source="syfK9ie_J2PRxrda43Ec-3" target="syfK9ie_J2PRxrda43Ec-17">
          <mxGeometry relative="1" as="geometry">
            <mxPoint x="414" y="110" as="sourcePoint" />
            <mxPoint x="413" y="268" as="targetPoint" />
          </mxGeometry>
        </mxCell>
        <mxCell id="syfK9ie_J2PRxrda43Ec-25" style="edgeStyle=orthogonalEdgeStyle;rounded=0;orthogonalLoop=1;jettySize=auto;html=1;exitX=0;exitY=0.5;exitDx=0;exitDy=0;entryX=0.5;entryY=0;entryDx=0;entryDy=0;" edge="1" parent="1" source="syfK9ie_J2PRxrda43Ec-17" target="syfK9ie_J2PRxrda43Ec-24">
          <mxGeometry relative="1" as="geometry" />
        </mxCell>
        <mxCell id="syfK9ie_J2PRxrda43Ec-17" value="Ho tempo?" style="rhombus;whiteSpace=wrap;html=1;" vertex="1" parent="1">
          <mxGeometry x="374" y="130" width="80" height="80" as="geometry" />
        </mxCell>
        <mxCell id="syfK9ie_J2PRxrda43Ec-29" style="edgeStyle=orthogonalEdgeStyle;rounded=0;orthogonalLoop=1;jettySize=auto;html=1;exitX=1;exitY=0.5;exitDx=0;exitDy=0;" edge="1" parent="1" source="syfK9ie_J2PRxrda43Ec-21">
          <mxGeometry relative="1" as="geometry">
            <mxPoint x="670" y="350" as="targetPoint" />
          </mxGeometry>
        </mxCell>
        <mxCell id="syfK9ie_J2PRxrda43Ec-32" style="edgeStyle=orthogonalEdgeStyle;rounded=0;orthogonalLoop=1;jettySize=auto;html=1;exitX=0.5;exitY=1;exitDx=0;exitDy=0;entryX=0.5;entryY=0;entryDx=0;entryDy=0;" edge="1" parent="1" source="syfK9ie_J2PRxrda43Ec-21" target="syfK9ie_J2PRxrda43Ec-31">
          <mxGeometry relative="1" as="geometry">
            <Array as="points">
              <mxPoint x="419" y="280" />
            </Array>
          </mxGeometry>
        </mxCell>
        <mxCell id="syfK9ie_J2PRxrda43Ec-21" value="Ho voglia" style="rhombus;whiteSpace=wrap;html=1;" vertex="1" parent="1">
          <mxGeometry x="570" y="200" width="80" height="80" as="geometry" />
        </mxCell>
        <mxCell id="syfK9ie_J2PRxrda43Ec-22" style="edgeStyle=orthogonalEdgeStyle;rounded=0;orthogonalLoop=1;jettySize=auto;html=1;exitX=1;exitY=0.5;exitDx=0;exitDy=0;entryX=0.5;entryY=0;entryDx=0;entryDy=0;" edge="1" parent="1" source="syfK9ie_J2PRxrda43Ec-17" target="syfK9ie_J2PRxrda43Ec-21">
          <mxGeometry relative="1" as="geometry" />
        </mxCell>
        <mxCell id="syfK9ie_J2PRxrda43Ec-43" style="edgeStyle=orthogonalEdgeStyle;rounded=0;orthogonalLoop=1;jettySize=auto;html=1;exitX=0;exitY=0.5;exitDx=0;exitDy=0;entryX=1;entryY=0.5;entryDx=0;entryDy=0;" edge="1" parent="1" source="syfK9ie_J2PRxrda43Ec-24" target="syfK9ie_J2PRxrda43Ec-46">
          <mxGeometry relative="1" as="geometry">
            <mxPoint x="70" y="240" as="targetPoint" />
          </mxGeometry>
        </mxCell>
        <mxCell id="syfK9ie_J2PRxrda43Ec-24" value="Vado a letto" style="rounded=0;whiteSpace=wrap;html=1;" vertex="1" parent="1">
          <mxGeometry x="160" y="210" width="120" height="60" as="geometry" />
        </mxCell>
        <mxCell id="syfK9ie_J2PRxrda43Ec-26" value="NO" style="text;html=1;align=center;verticalAlign=middle;resizable=0;points=[];autosize=1;strokeColor=none;fillColor=none;" vertex="1" parent="1">
          <mxGeometry x="510" y="250" width="40" height="30" as="geometry" />
        </mxCell>
        <mxCell id="syfK9ie_J2PRxrda43Ec-27" value="SI" style="text;html=1;align=center;verticalAlign=middle;resizable=0;points=[];autosize=1;strokeColor=none;fillColor=none;" vertex="1" parent="1">
          <mxGeometry x="680" y="250" width="30" height="30" as="geometry" />
        </mxCell>
        <mxCell id="syfK9ie_J2PRxrda43Ec-37" style="edgeStyle=orthogonalEdgeStyle;rounded=0;orthogonalLoop=1;jettySize=auto;html=1;exitX=0.5;exitY=1;exitDx=0;exitDy=0;entryX=0.5;entryY=0;entryDx=0;entryDy=0;" edge="1" parent="1" source="syfK9ie_J2PRxrda43Ec-31" target="syfK9ie_J2PRxrda43Ec-35">
          <mxGeometry relative="1" as="geometry" />
        </mxCell>
        <mxCell id="syfK9ie_J2PRxrda43Ec-31" value="C&#39;ho altro da fare" style="rhombus;whiteSpace=wrap;html=1;" vertex="1" parent="1">
          <mxGeometry x="354" y="330" width="130" height="130" as="geometry" />
        </mxCell>
        <mxCell id="syfK9ie_J2PRxrda43Ec-33" style="edgeStyle=orthogonalEdgeStyle;rounded=0;orthogonalLoop=1;jettySize=auto;html=1;exitX=0;exitY=0.5;exitDx=0;exitDy=0;entryX=1;entryY=0.5;entryDx=0;entryDy=0;" edge="1" parent="1" source="syfK9ie_J2PRxrda43Ec-31" target="syfK9ie_J2PRxrda43Ec-24">
          <mxGeometry relative="1" as="geometry" />
        </mxCell>
        <mxCell id="syfK9ie_J2PRxrda43Ec-34" value="NO" style="text;html=1;align=center;verticalAlign=middle;resizable=0;points=[];autosize=1;strokeColor=none;fillColor=none;" vertex="1" parent="1">
          <mxGeometry x="270" y="338" width="40" height="30" as="geometry" />
        </mxCell>
        <mxCell id="syfK9ie_J2PRxrda43Ec-41" style="edgeStyle=orthogonalEdgeStyle;rounded=0;orthogonalLoop=1;jettySize=auto;html=1;exitX=0;exitY=0.5;exitDx=0;exitDy=0;entryX=0.5;entryY=1;entryDx=0;entryDy=0;" edge="1" parent="1" source="syfK9ie_J2PRxrda43Ec-35" target="syfK9ie_J2PRxrda43Ec-24">
          <mxGeometry relative="1" as="geometry" />
        </mxCell>
        <mxCell id="syfK9ie_J2PRxrda43Ec-35" value="Faccio altro" style="rounded=0;whiteSpace=wrap;html=1;" vertex="1" parent="1">
          <mxGeometry x="359" y="510" width="120" height="60" as="geometry" />
        </mxCell>
        <mxCell id="syfK9ie_J2PRxrda43Ec-36" value="SI" style="text;html=1;align=center;verticalAlign=middle;resizable=0;points=[];autosize=1;strokeColor=none;fillColor=none;" vertex="1" parent="1">
          <mxGeometry x="435" y="458" width="30" height="30" as="geometry" />
        </mxCell>
        <mxCell id="syfK9ie_J2PRxrda43Ec-46" value="FINE" style="rounded=1;whiteSpace=wrap;html=1;arcSize=48;" vertex="1" parent="1">
          <mxGeometry x="-70" y="210" width="120" height="60" as="geometry" />
        </mxCell>
        <mxCell id="syfK9ie_J2PRxrda43Ec-52" style="edgeStyle=orthogonalEdgeStyle;rounded=0;orthogonalLoop=1;jettySize=auto;html=1;exitX=0;exitY=0.5;exitDx=0;exitDy=0;entryX=0.5;entryY=0;entryDx=0;entryDy=0;" edge="1" parent="1" source="syfK9ie_J2PRxrda43Ec-47" target="syfK9ie_J2PRxrda43Ec-51">
          <mxGeometry relative="1" as="geometry" />
        </mxCell>
        <mxCell id="syfK9ie_J2PRxrda43Ec-47" value="Guardo un film?" style="rhombus;whiteSpace=wrap;html=1;" vertex="1" parent="1">
          <mxGeometry x="820" y="500" width="80" height="80" as="geometry" />
        </mxCell>
        <mxCell id="syfK9ie_J2PRxrda43Ec-48" value="SI" style="text;html=1;align=center;verticalAlign=middle;resizable=0;points=[];autosize=1;strokeColor=none;fillColor=none;" vertex="1" parent="1">
          <mxGeometry x="965" y="510" width="30" height="30" as="geometry" />
        </mxCell>
        <mxCell id="syfK9ie_J2PRxrda43Ec-49" value="NO" style="text;html=1;align=center;verticalAlign=middle;resizable=0;points=[];autosize=1;strokeColor=none;fillColor=none;" vertex="1" parent="1">
          <mxGeometry x="696" y="518" width="40" height="30" as="geometry" />
        </mxCell>
        <mxCell id="syfK9ie_J2PRxrda43Ec-55" style="edgeStyle=orthogonalEdgeStyle;rounded=0;orthogonalLoop=1;jettySize=auto;html=1;exitX=0;exitY=0.5;exitDx=0;exitDy=0;entryX=0.5;entryY=1;entryDx=0;entryDy=0;" edge="1" parent="1" source="syfK9ie_J2PRxrda43Ec-51" target="syfK9ie_J2PRxrda43Ec-35">
          <mxGeometry relative="1" as="geometry" />
        </mxCell>
        <mxCell id="syfK9ie_J2PRxrda43Ec-51" value="Guardo una serie tv?" style="rhombus;whiteSpace=wrap;html=1;" vertex="1" parent="1">
          <mxGeometry x="670" y="570" width="80" height="80" as="geometry" />
        </mxCell>
        <mxCell id="syfK9ie_J2PRxrda43Ec-53" value="NO" style="text;html=1;align=center;verticalAlign=middle;resizable=0;points=[];autosize=1;strokeColor=none;fillColor=none;" vertex="1" parent="1">
          <mxGeometry x="600" y="570" width="40" height="30" as="geometry" />
        </mxCell>
        <mxCell id="syfK9ie_J2PRxrda43Ec-54" value="SI" style="text;html=1;align=center;verticalAlign=middle;resizable=0;points=[];autosize=1;strokeColor=none;fillColor=none;" vertex="1" parent="1">
          <mxGeometry x="770" y="570" width="30" height="30" as="geometry" />
        </mxCell>
        <mxCell id="syfK9ie_J2PRxrda43Ec-67" style="edgeStyle=orthogonalEdgeStyle;rounded=0;orthogonalLoop=1;jettySize=auto;html=1;exitX=0.5;exitY=1;exitDx=0;exitDy=0;entryX=0.5;entryY=0;entryDx=0;entryDy=0;" edge="1" parent="1" source="syfK9ie_J2PRxrda43Ec-59" target="syfK9ie_J2PRxrda43Ec-61">
          <mxGeometry relative="1" as="geometry" />
        </mxCell>
        <mxCell id="syfK9ie_J2PRxrda43Ec-59" value="Decido che serie tv guardare" style="shape=parallelogram;perimeter=parallelogramPerimeter;whiteSpace=wrap;html=1;fixedSize=1;" vertex="1" parent="1">
          <mxGeometry x="710" y="680" width="146" height="60" as="geometry" />
        </mxCell>
        <mxCell id="syfK9ie_J2PRxrda43Ec-60" style="edgeStyle=orthogonalEdgeStyle;rounded=0;orthogonalLoop=1;jettySize=auto;html=1;exitX=1;exitY=0.5;exitDx=0;exitDy=0;entryX=0.575;entryY=0.05;entryDx=0;entryDy=0;entryPerimeter=0;" edge="1" parent="1" source="syfK9ie_J2PRxrda43Ec-51" target="syfK9ie_J2PRxrda43Ec-59">
          <mxGeometry relative="1" as="geometry" />
        </mxCell>
        <mxCell id="syfK9ie_J2PRxrda43Ec-68" style="edgeStyle=orthogonalEdgeStyle;rounded=0;orthogonalLoop=1;jettySize=auto;html=1;exitX=1;exitY=0.5;exitDx=0;exitDy=0;entryX=0.5;entryY=1;entryDx=0;entryDy=0;" edge="1" parent="1" source="syfK9ie_J2PRxrda43Ec-61" target="syfK9ie_J2PRxrda43Ec-47">
          <mxGeometry relative="1" as="geometry">
            <Array as="points">
              <mxPoint x="870" y="848" />
              <mxPoint x="870" y="580" />
            </Array>
          </mxGeometry>
        </mxCell>
        <mxCell id="syfK9ie_J2PRxrda43Ec-61" value="Piace a tutti" style="rhombus;whiteSpace=wrap;html=1;" vertex="1" parent="1">
          <mxGeometry x="745" y="808" width="80" height="80" as="geometry" />
        </mxCell>
        <mxCell id="syfK9ie_J2PRxrda43Ec-62" value="NO" style="text;html=1;align=center;verticalAlign=middle;resizable=0;points=[];autosize=1;strokeColor=none;fillColor=none;" vertex="1" parent="1">
          <mxGeometry x="870" y="770" width="40" height="30" as="geometry" />
        </mxCell>
        <mxCell id="syfK9ie_J2PRxrda43Ec-63" value="SI" style="text;html=1;align=center;verticalAlign=middle;resizable=0;points=[];autosize=1;strokeColor=none;fillColor=none;" vertex="1" parent="1">
          <mxGeometry x="680" y="808" width="30" height="30" as="geometry" />
        </mxCell>
        <mxCell id="syfK9ie_J2PRxrda43Ec-69" value="Guardiamo la cosa scelta" style="rounded=0;whiteSpace=wrap;html=1;" vertex="1" parent="1">
          <mxGeometry x="590" y="920" width="120" height="60" as="geometry" />
        </mxCell>
        <mxCell id="syfK9ie_J2PRxrda43Ec-70" style="edgeStyle=orthogonalEdgeStyle;rounded=0;orthogonalLoop=1;jettySize=auto;html=1;exitX=0;exitY=0.5;exitDx=0;exitDy=0;entryX=0.425;entryY=-0.05;entryDx=0;entryDy=0;entryPerimeter=0;" edge="1" parent="1" source="syfK9ie_J2PRxrda43Ec-61" target="syfK9ie_J2PRxrda43Ec-69">
          <mxGeometry relative="1" as="geometry" />
        </mxCell>
        <mxCell id="syfK9ie_J2PRxrda43Ec-73" style="edgeStyle=orthogonalEdgeStyle;rounded=0;orthogonalLoop=1;jettySize=auto;html=1;exitX=0.5;exitY=1;exitDx=0;exitDy=0;entryX=0.5;entryY=1;entryDx=0;entryDy=0;" edge="1" parent="1" source="syfK9ie_J2PRxrda43Ec-71" target="syfK9ie_J2PRxrda43Ec-61">
          <mxGeometry relative="1" as="geometry" />
        </mxCell>
        <mxCell id="syfK9ie_J2PRxrda43Ec-71" value="Decidiamo che genere" style="shape=parallelogram;perimeter=parallelogramPerimeter;whiteSpace=wrap;html=1;fixedSize=1;" vertex="1" parent="1">
          <mxGeometry x="980" y="570" width="120" height="60" as="geometry" />
        </mxCell>
        <mxCell id="syfK9ie_J2PRxrda43Ec-72" style="edgeStyle=orthogonalEdgeStyle;rounded=0;orthogonalLoop=1;jettySize=auto;html=1;exitX=1;exitY=0.5;exitDx=0;exitDy=0;entryX=0.567;entryY=0.017;entryDx=0;entryDy=0;entryPerimeter=0;" edge="1" parent="1" source="syfK9ie_J2PRxrda43Ec-47" target="syfK9ie_J2PRxrda43Ec-71">
          <mxGeometry relative="1" as="geometry" />
        </mxCell>
        <mxCell id="syfK9ie_J2PRxrda43Ec-79" style="edgeStyle=orthogonalEdgeStyle;rounded=0;orthogonalLoop=1;jettySize=auto;html=1;exitX=0.925;exitY=0.425;exitDx=0;exitDy=0;entryX=0;entryY=0;entryDx=0;entryDy=0;exitPerimeter=0;" edge="1" parent="1" source="syfK9ie_J2PRxrda43Ec-74" target="syfK9ie_J2PRxrda43Ec-47">
          <mxGeometry relative="1" as="geometry">
            <mxPoint x="110" y="900" as="sourcePoint" />
            <mxPoint x="620" y="510" as="targetPoint" />
            <Array as="points">
              <mxPoint x="431" y="900" />
              <mxPoint x="440" y="900" />
              <mxPoint x="440" y="901" />
              <mxPoint x="540" y="901" />
              <mxPoint x="540" y="520" />
            </Array>
          </mxGeometry>
        </mxCell>
        <mxCell id="syfK9ie_J2PRxrda43Ec-80" style="edgeStyle=orthogonalEdgeStyle;rounded=0;orthogonalLoop=1;jettySize=auto;html=1;exitX=0;exitY=0.5;exitDx=0;exitDy=0;" edge="1" parent="1" source="syfK9ie_J2PRxrda43Ec-74" target="syfK9ie_J2PRxrda43Ec-31">
          <mxGeometry relative="1" as="geometry">
            <Array as="points">
              <mxPoint x="300" y="910" />
              <mxPoint x="300" y="710" />
              <mxPoint x="340" y="710" />
              <mxPoint x="340" y="420" />
            </Array>
          </mxGeometry>
        </mxCell>
        <mxCell id="syfK9ie_J2PRxrda43Ec-74" value="Si vuole guardare altro" style="rhombus;whiteSpace=wrap;html=1;" vertex="1" parent="1">
          <mxGeometry x="320" y="850" width="120" height="120" as="geometry" />
        </mxCell>
        <mxCell id="syfK9ie_J2PRxrda43Ec-75" value="SI" style="text;html=1;align=center;verticalAlign=middle;resizable=0;points=[];autosize=1;strokeColor=none;fillColor=none;" vertex="1" parent="1">
          <mxGeometry x="455" y="858" width="30" height="30" as="geometry" />
        </mxCell>
        <mxCell id="syfK9ie_J2PRxrda43Ec-76" value="NO" style="text;html=1;align=center;verticalAlign=middle;resizable=0;points=[];autosize=1;strokeColor=none;fillColor=none;" vertex="1" parent="1">
          <mxGeometry x="300" y="720" width="40" height="30" as="geometry" />
        </mxCell>
        <mxCell id="syfK9ie_J2PRxrda43Ec-81" value="GRUPPO 1&lt;br&gt;PROGETTO 3" style="text;html=1;align=center;verticalAlign=middle;resizable=0;points=[];autosize=1;strokeColor=none;fillColor=none;" vertex="1" parent="1">
          <mxGeometry x="-190" y="460" width="100" height="40" as="geometry" />
        </mxCell>
        <mxCell id="syfK9ie_J2PRxrda43Ec-82" value="LUIGI URBANO&lt;br&gt;GIANNI DE MARE&lt;br&gt;EMANUELE CAMPANELLI&lt;br&gt;LUIGI IACOMINO&lt;br&gt;GIANMARCO ORABONA" style="text;html=1;align=center;verticalAlign=middle;resizable=0;points=[];autosize=1;strokeColor=none;fillColor=none;" vertex="1" parent="1">
          <mxGeometry x="-230" y="510" width="170" height="90" as="geometry" />
        </mxCell>
      </root>
    </mxGraphModel>
  </diagram>
</mxfile>
